<svg width="73" height="73" viewBox="0 0 73 73" fill="none" xmlns="http://www.w3.org/2000/svg">
<g clip-path="url(#clip0)">
<path d="M69.9853 39.2236C69.7779 38.8169 69.5705 38.5298 69.1159 38.3702C66.484 37.3972 63.7404 37.4371 61.1643 37.6285C59.1944 37.7721 57.6551 38.5298 56.4428 39.9574L56.379 40.0292C56.3744 40.0332 56.3715 40.039 56.371 40.0451L39.0562 40.1328L36.5359 40.1488L36.161 40.1647H33.2021L16.8523 40.2525H16.8443L16.7805 40.1727C15.6799 38.8807 14.2682 38.0432 12.9044 37.8678L12.5136 37.8199C11.8835 37.7402 11.2296 37.6604 10.5835 37.6126C8.06327 37.4371 6.01356 37.6604 4.13133 38.3144C3.6847 38.4659 3.45341 38.761 3.25402 39.1518C2.63991 40.3402 2.63193 41.4887 3.24605 42.677C3.44544 43.0838 3.66077 43.3629 4.11538 43.5224C5.59085 44.0408 7.24179 44.2961 9.17186 44.2961C10.0252 44.2961 10.9265 44.2562 12.0829 44.1525C14.0449 43.977 15.5762 43.1954 16.7725 41.7598L16.8363 41.6801C16.8443 41.6721 16.8443 41.6641 16.8443 41.6482L25.1787 41.6083C25.2186 41.7678 25.2585 41.9433 25.2984 42.1187C27.9542 53.5477 31.942 68.7171 35.9377 68.7171H35.9776C40.412 68.6054 46.2979 45.8912 47.3986 41.4887L56.3391 41.4408V41.4568L56.4109 41.5365C57.4876 42.8445 58.8913 43.7059 60.2471 43.8973L60.6539 43.9531C61.276 44.0408 61.93 44.1365 62.568 44.1844C63.2061 44.2323 63.8441 44.2721 64.4343 44.2721C66.1251 44.2721 67.6245 44.0408 69.0282 43.5783C69.4828 43.4267 69.7141 43.1396 69.9215 42.7568C70.5595 41.5764 70.5755 40.42 69.9853 39.2236Z" fill="black"/>
<path d="M3.90803 35.0285C5.3835 35.5469 7.04241 35.8021 8.96451 35.8021C9.81789 35.8021 10.7191 35.7543 11.8756 35.6506C13.8376 35.4831 15.3768 34.7015 16.5732 33.2579L16.637 33.1861V33.1702L32.8113 33.0904L36.3525 33.0745L36.7273 33.0585H38.9764L56.2115 32.9708C57.2882 34.2788 58.6919 35.1402 60.0557 35.3316L60.4465 35.3794C61.0766 35.4751 61.7226 35.5629 62.3766 35.6187C63.0306 35.6745 63.6527 35.7064 64.2429 35.7064C65.9257 35.7064 67.4331 35.4751 68.8368 35.0125C69.2834 34.861 69.5147 34.5739 69.7221 34.1831C70.3521 33.0107 70.3681 31.8542 69.7779 30.6579C69.5785 30.2512 69.3632 29.964 68.9165 29.8045C66.2766 28.8315 63.5331 28.8714 60.957 29.0628C58.995 29.2064 57.4477 29.964 56.2355 31.3837L56.1717 31.4634C56.1628 31.478 56.1573 31.4943 56.1557 31.5113V31.5751L47.4225 31.6229C47.3587 31.3597 47.2949 31.0726 47.2151 30.7616C44.4397 19.3725 40.3004 4.28284 36.3126 4.28284H36.2568C31.7905 4.45032 26.088 27.5474 25.091 31.7346L16.6529 31.7825C16.6449 31.7745 16.6449 31.7585 16.637 31.7506L16.5732 31.6708C15.4805 30.3867 14.0689 29.5413 12.705 29.3738L12.2983 29.326C11.6682 29.2462 11.0222 29.1585 10.3762 29.1186C7.86389 28.9352 5.81418 29.1585 3.92398 29.8205C3.47735 29.972 3.24606 30.2671 3.04667 30.6499C2.43256 31.8383 2.43256 32.9947 3.0387 34.1831C3.24606 34.5898 3.4614 34.869 3.90803 35.0285Z" fill="black"/>
<path d="M18.0805 34.2629V39.2555C18.4483 39.3002 18.8186 39.3216 19.1891 39.3193C20.1143 39.3193 20.8401 39.0641 21.2867 38.5856C21.7333 38.1071 21.9646 37.4451 21.9646 36.6156C21.9646 35.7862 21.7174 35.204 21.2947 34.7972C20.872 34.3905 20.2579 34.1592 19.3805 34.1592C18.9452 34.1614 18.5107 34.1961 18.0805 34.2629ZM21.3266 36.6396C21.3266 38.0114 20.6168 38.793 19.3088 38.793C19.1033 38.7986 18.8977 38.7853 18.6947 38.7531V34.7494C18.9276 34.6975 19.1659 34.6734 19.4045 34.6776C20.6965 34.6776 21.3346 35.4432 21.3266 36.6396Z" fill="black"/>
<path d="M24.2376 39.2715V37.1101L25.8247 34.199H25.1229L24.445 35.6027C24.2615 35.9856 24.102 36.3126 23.9664 36.6475H23.9505C23.8069 36.2886 23.6634 35.9856 23.4799 35.6027L22.818 34.199H22.1161L23.6155 37.1181V39.2715H24.2376Z" fill="black"/>
<path d="M27.9782 38.5936H27.9622C27.8346 38.0034 27.6591 37.3813 27.4597 36.6954L26.718 34.199H26.064L27.6033 39.2715H28.2812L29.972 34.199H29.318L28.5205 36.7034C28.3051 37.3653 28.1137 38.0113 27.9782 38.5936Z" fill="black"/>
<path d="M30.2033 36.7832C30.2033 38.3145 31.0806 39.3592 32.3328 39.3592C33.5849 39.3592 34.534 38.4341 34.534 36.6874C34.534 35.1801 33.6966 34.1193 32.4046 34.1193C31.1125 34.1193 30.2033 35.1721 30.2033 36.7832ZM33.888 36.7114C33.888 37.8678 33.3377 38.8249 32.3727 38.8249C31.4076 38.8249 30.8573 37.8519 30.8573 36.7672C30.8573 35.6825 31.3677 34.6537 32.3806 34.6537C33.3935 34.6537 33.888 35.7065 33.888 36.7114Z" fill="black"/>
<path d="M36.815 34.199V39.2715H37.4291V37.3414L37.8758 36.7831L39.439 39.2715H40.1568L38.3144 36.3524L40.0292 34.199H39.2715L37.8199 36.1052C37.7003 36.2727 37.5727 36.4481 37.4531 36.6475H37.4291V34.199H36.815Z" fill="black"/>
<path d="M41.9433 34.199L40.3402 39.2715H40.9703L41.4648 37.6764H43.1396L43.6421 39.2715H44.2961L42.685 34.199H41.9433ZM41.5844 37.1659L42.047 35.6984C42.1427 35.3874 42.2224 35.0763 42.2862 34.7813H42.3022C42.374 35.0684 42.4457 35.3714 42.5494 35.7064L43.012 37.1659H41.5844Z" fill="black"/>
<path d="M46.1145 39.2715V37.1101L47.7016 34.199H46.9998L46.3218 35.6027C46.1384 35.9856 45.9789 36.3126 45.8433 36.6475H45.8274C45.6838 36.2886 45.5403 35.9856 45.3568 35.6027L44.6948 34.199H44.001L45.4924 37.1181V39.2715H46.1145Z" fill="black"/>
<path d="M48.4354 37.6764H50.1182L50.6207 39.2715H51.2747L49.6556 34.199H48.9219L47.3108 39.2715H47.9489L48.4354 37.6764ZM49.0256 35.6984C49.1213 35.3874 49.193 35.0763 49.2648 34.7813H49.2808C49.3526 35.0684 49.4243 35.3714 49.528 35.7064L49.9906 37.1659H48.563L49.0256 35.6984Z" fill="black"/>
<path d="M51.9685 34.199V39.2715H52.5827V37.3414L53.0293 36.7831L54.5925 39.2715H55.3182L53.4679 36.3524L55.1827 34.199H54.425L52.9735 36.1052C52.8538 36.2727 52.7262 36.4481 52.6066 36.6475H52.5827V34.199H51.9685Z" fill="black"/>
<path d="M70.1281 22.2917C67.3333 15.6827 62.6532 10.0438 56.6722 6.07923C50.6913 2.1147 43.6748 0.000366211 36.4992 0.000366211C29.3237 0.000366211 22.3072 2.1147 16.3262 6.07923C10.3453 10.0438 5.66517 15.6827 2.87043 22.2917C0.0457528 28.9832 -0.718983 36.3652 0.674011 43.4936C2.06701 50.6221 5.55442 57.1731 10.6903 62.309C15.8263 67.4449 22.3773 70.9323 29.5057 72.3253C36.6342 73.7183 44.0161 72.9536 50.7076 70.1289C57.3198 67.3374 62.9615 62.6575 66.9267 56.675C70.8918 50.6925 73.0042 43.6733 72.9992 36.4961C73.0087 31.6162 72.0321 26.7848 70.1281 22.2917ZM36.4953 71.8038C17.0031 71.8038 1.19557 55.9963 1.19557 36.4961C1.19557 16.9959 17.0031 1.19642 36.4953 1.19642C55.9874 1.19642 71.8029 17.0039 71.8029 36.4961C71.8029 55.9883 55.9954 71.8038 36.4953 71.8038Z" fill="black"/>
</g>
<defs>
<clipPath id="clip0">
<rect width="73" height="73" fill="white"/>
</clipPath>
</defs>
</svg>
